# xmcd
#
# Track frame offsets: 
#        150
#        14256
#        25408
#        39610
#        49956
#        62170
#        76472
#        89790
#        103592
#        116824
#        129312
#        140200
#        152595
#        166320
#        177076
#        192316
#        205022
#        218173
#        232976
#        247086
#        261104
#
# Disc length: 3657 seconds
#
# Revision: 5
# Processed by: cddbd v1.5.2PL0 Copyright (c) Steve Scherf et al.
# Submitted via: ExactAudioCopy v0.95a4
#
DISCID=300e4715
DTITLE=Various Artist - Confessin' The Blues [CD1]
DYEAR=2018
DGENRE=Blues
TTITLE0=Muddy Waters - Rollin' Stone
TTITLE1=Howlin' Wolf  - Little Red Rooster
TTITLE2=John Lee Hooker - Boogie Chillen
TTITLE3=Little Walter - I Hate To See You Go
TTITLE4=Chuck Berry - Little Queenie
TTITLE5=Bo Diddley - You Can't Judge A Book By Its Cover
TTITLE6=Eddie Taylor - Ride 'Em On Down
TTITLE7=Slim Harpo - I'm A King Bee
TTITLE8=Magic Sam - All Your Love
TTITLE9=Elmore James - Dust My Broom
TTITLE10=Little Walter - Just Your Fool
TTITLE11=Muddy Waters - I Want To Be Loved
TTITLE12=Big Bill Broonzy - Key To The Highway
TTITLE13=Robert Johnson - Love In Vain Blues
TTITLE14=Mississippi Fred McDowell - You Gotta Move
TTITLE15=Jimmy Reed - Bright Lights, Big City
TTITLE16=Big Maceo - Worried Life Blues
TTITLE17=Little Johnny Taylor - Everybody Knows About My Good Thing (P
TTITLE17=art 1)
TTITLE18=Howlin' Wolf - Commit A Crime
TTITLE19=Otis Rush - I Can't Quit You Baby
TTITLE20=Jay McShann and Walter Brown - Confessin' The Blues
EXTD=
EXTT0=
EXTT1=
EXTT2=
EXTT3=
EXTT4=
EXTT5=
EXTT6=
EXTT7=
EXTT8=
EXTT9=
EXTT10=
EXTT11=
EXTT12=
EXTT13=
EXTT14=
EXTT15=
EXTT16=
EXTT17=
EXTT18=
EXTT19=
EXTT20=
PLAYORDER=
